<svg viewBox="0 0 92 92" xmlns="http://www.w3.org/2000/svg" xmlns:xlink="http://www.w3.org/1999/xlink" width="92.000000" height="92.000000" fill="none">
	<rect id="bangladesh-govt-logo 1" width="92.000000" height="92.000000" x="0.000000" y="0.000000" fill="rgb(255,255,255)" fill-opacity="0" />
	<path id="Vector" d="M78.8523 45.5005C78.8523 51.9164 76.9259 58.1881 73.3166 63.5227C69.7074 68.8573 64.5775 73.0151 58.5756 75.4703C52.5737 77.9256 45.9694 78.568 39.5978 77.3163C33.2263 76.0646 27.3736 72.9751 22.7799 68.4384C18.1863 63.9017 15.058 58.1216 13.7906 51.8291C12.5232 45.5365 13.1737 39.0141 15.6597 33.0866C18.1458 27.1591 22.3558 22.0928 27.7574 18.5284C33.1589 14.9639 39.5094 13.0614 46.0058 13.0614C54.7173 13.0614 63.0719 16.4791 69.2318 22.5626C75.3917 28.6461 78.8523 36.8971 78.8523 45.5005Z" fill="rgb(237,28,36)" fill-rule="nonzero" />
	<path id="Vector" d="M34.7085 79.1001L33.3286 82.113L32.7465 83.284L32.1536 82.9859C32.0065 82.6807 31.8016 82.406 31.55 82.1768L32.4986 80.1221C32.3582 79.7152 32.1174 79.3493 31.7979 79.0575C31.6024 79.0092 31.3958 79.0318 31.2158 79.1214L29.5988 79.675C28.9994 79.907 28.3333 79.907 27.7339 79.675C27.4367 79.5242 27.1749 79.3138 26.9651 79.0571C26.7553 78.8004 26.6022 78.5031 26.5157 78.1845L27.1518 77.8757C27.3227 78.073 27.461 78.2958 27.5614 78.5358C27.6338 78.6709 27.7521 78.7765 27.8956 78.8339C28.1872 78.8924 28.4878 78.8924 28.7795 78.8339C29.2431 78.8339 29.491 78.7061 29.5341 78.6316C29.6419 78.3761 29.4694 78.0567 29.0059 77.6522C28.5548 77.2701 28.0501 76.9545 27.5075 76.7153C27.6233 76.4778 27.7844 76.2646 27.9818 76.0872L27.0871 75.6507L26.4834 75.3845L26.8284 74.6393L36.4225 78.8978L36.0775 79.643L34.7085 79.1001ZM33.2963 78.4613L30.2133 77.0773C30.3385 77.4941 30.3385 77.9379 30.2133 78.3548C30.5216 78.3833 30.832 78.3833 31.1403 78.3548C31.4739 78.3279 31.8092 78.3279 32.1429 78.3548C32.4337 78.7128 32.6765 79.1064 32.8651 79.5259C32.9322 79.4286 32.99 79.3252 33.0376 79.2172C33.0376 79.1001 33.1454 78.8446 33.2963 78.4613Z" fill="rgb(255,255,255)" fill-rule="nonzero" />
	<path id="Vector" d="M41.8663 80.548L40.9393 85.062L40.2601 84.9342C38.7591 83.3825 36.7807 82.3645 34.633 82.0384L34.536 80.7502C35.2043 80.6651 36.1637 80.6118 37.4142 80.5799C38.6647 80.548 39.7103 80.5054 40.2925 80.4628L40.2925 80.2605L34.2126 79.0468L34.3743 78.2697L43.6774 80.0902L43.5157 80.878L41.8663 80.548ZM37.0261 84.6787C36.7465 84.6314 36.4791 84.5301 36.2392 84.3806C35.9158 84.189 35.7865 83.9548 35.8404 83.6992C35.9374 83.2202 36.3686 83.0605 37.1339 83.2095C37.4083 83.2579 37.6691 83.3631 37.8993 83.5182C38.0234 83.5744 38.1271 83.6667 38.1965 83.7828C38.2659 83.8989 38.2976 84.0332 38.2874 84.1677C38.2595 84.283 38.1992 84.3882 38.1134 84.4711C38.0275 84.554 37.9197 84.6112 37.8023 84.6361C37.5521 84.7185 37.2841 84.7332 37.0261 84.6787ZM40.0769 81.4848C38.9989 81.4848 37.9856 81.5487 37.0261 81.6445C37.978 82.1561 38.8646 82.778 39.6672 83.497L40.0769 81.4848Z" fill="rgb(255,255,255)" fill-rule="nonzero" />
	<path id="Vector" d="M49.3476 80.4947L49.3476 80.8141C50.0755 80.7849 50.8034 80.8711 51.5036 81.0696C52.4091 81.3464 52.8834 81.8042 52.9265 82.4642C52.9265 82.7943 52.7325 83.0711 52.3013 83.316C51.9695 83.4962 51.6013 83.6016 51.2233 83.6247C50.9774 83.6464 50.7298 83.6099 50.5011 83.5182C50.3958 83.4827 50.3018 83.4204 50.2285 83.3378C50.1552 83.2551 50.1052 83.1549 50.0833 83.0471C50.0615 82.9394 50.0687 82.8279 50.1042 82.7237C50.1396 82.6196 50.2021 82.5264 50.2855 82.4536C50.451 82.3223 50.6553 82.2476 50.8676 82.2407C51.2154 82.2437 51.5553 82.3433 51.8485 82.5281C51.9779 82.4643 52.0426 82.411 52.0318 82.3365C52.0318 81.8255 51.3096 81.6126 49.9513 81.6871L49.3907 81.6871L49.574 84.9874L48.8841 84.9874C48.1414 84.468 47.3136 84.0791 46.437 83.8376C45.4113 83.6343 44.3678 83.5309 43.3216 83.5289L42.5347 82.4642C44.3234 82.0563 46.09 81.5588 47.8276 80.9738C47.8163 80.8534 47.8163 80.7322 47.8276 80.6118L41.834 80.9418L41.7585 80.1647L54.08 79.4833L54.08 80.2605L49.3476 80.4947ZM47.9893 82.6772C47.9893 82.7411 47.9893 82.5175 47.9247 82.0171C47.0019 82.2225 46.0914 82.4784 45.1973 82.7836C45.9196 82.9966 46.879 83.3159 48.0432 83.7631L47.9893 82.6772Z" fill="rgb(255,255,255)" fill-rule="nonzero" />
	<path id="Vector" d="M55.3305 79.4195L56.4085 83.8376L55.8371 83.9761C55.5095 83.7778 55.1412 83.6542 54.7591 83.6141L53.7782 79.7814L52.3013 80.1647L52.0965 79.3875L53.6596 78.9936L53.4224 78.0993L53.9938 77.929L54.8238 78.7062L56.6456 78.2484L56.8397 79.0362L55.3305 79.4195Z" fill="rgb(255,255,255)" fill-rule="nonzero" />
	<path id="Vector" d="M62.7255 76.7153L64.5473 80.9738L63.9005 81.24C61.7729 80.7917 59.5547 81.0538 57.5943 81.9852L56.7858 80.9206C57.2817 80.4841 58.047 79.8559 59.0603 79.1746C60.0737 78.4932 60.9145 77.8332 61.3672 77.4712L61.281 77.2902L55.5353 79.6856L55.2119 78.9404L63.9221 75.2887L64.2455 76.0233L62.7255 76.7153ZM61.7661 78.4506C60.9294 79.0274 60.12 79.642 59.3406 80.2924C60.4149 80.1677 61.5003 80.1677 62.5746 80.2924L61.7661 78.4506ZM61.1085 82.8156C60.8472 82.934 60.5656 83.0026 60.2785 83.0179C60.1371 83.0439 59.9909 83.025 59.8611 82.9638C59.7313 82.9025 59.6246 82.8022 59.5562 82.6772C59.3622 82.23 59.6317 81.8468 60.3432 81.5487C60.599 81.4409 60.8735 81.3831 61.1516 81.3783C61.2856 81.3649 61.4205 81.3925 61.5381 81.4572C61.6557 81.5219 61.7503 81.6208 61.8092 81.7403C61.8565 81.8488 61.8694 81.9689 61.8464 82.0848C61.8233 82.2007 61.7652 82.307 61.6799 82.3897C61.5257 82.5661 61.3293 82.7015 61.1085 82.7837L61.1085 82.8156Z" fill="rgb(255,255,255)" fill-rule="nonzero" />
	<g id="Group">
		<path id="Vector" d="M7.24126 38.1227L11.2729 38.6124L11.1112 39.9432L10.0333 39.8048L9.01994 39.6877C8.74672 39.6223 8.46122 39.6261 8.18988 39.6987C7.91854 39.7713 7.67012 39.9103 7.46764 40.1029C7.13905 40.5671 6.94861 41.1129 6.91786 41.6785C6.83162 42.3599 6.91786 42.7431 7.03644 42.7431L7.09034 42.7431L7.09034 42.626L7.09034 42.5089L7.09034 42.2215C7.08329 42.1222 7.08329 42.0226 7.09034 41.9234C7.13617 41.6149 7.25836 41.3223 7.44607 41.0717C7.68323 40.731 7.93117 40.5713 8.18989 40.6032C8.44861 40.6352 8.79356 41.0078 8.89058 41.6679C8.97082 42.2792 8.97082 42.8983 8.89058 43.5097L8.07131 43.9887C8.07131 43.8184 8.07131 43.6587 8.14677 43.499L8.14677 43.2329C8.29769 42.0511 8.20067 41.4336 7.86649 41.3911C7.53231 41.3485 7.53231 41.5508 7.47842 41.9553C7.44234 42.3967 7.53195 42.8392 7.73713 43.2329C7.42452 43.6906 7.09034 43.9036 6.75616 43.861C6.58496 43.8368 6.42388 43.7663 6.29071 43.6573C6.15754 43.5483 6.05747 43.4051 6.00157 43.2435C5.85595 42.9309 5.8036 42.5837 5.85065 42.2428C6.06535 41.1958 6.57331 40.2294 7.31672 39.4534L6.34652 39.3363L6.69148 36.5789L7.41374 36.6641L7.24126 38.1227Z" fill="rgb(255,255,255)" fill-rule="nonzero" />
		<path id="Vector" d="M9.77452 29.957L13.6122 31.2665L13.3642 31.9159C12.8348 32.0684 12.3192 32.2643 11.8227 32.5014C11.226 32.8218 10.7609 33.3376 10.5075 33.96L10.5938 33.96C10.7266 34.002 10.8437 34.0821 10.9302 34.1902C11.0166 34.2984 11.0684 34.4295 11.0789 34.5668C11.1086 34.8411 11.0716 35.1185 10.9711 35.3759C10.8622 35.6939 10.6899 35.9871 10.4644 36.2383C10.1626 36.5683 9.88231 36.6854 9.60204 36.5896C9.43389 36.5212 9.2905 36.4044 9.19051 36.2544C9.09053 36.1044 9.0386 35.9281 9.04148 35.7485C8.99415 35.3902 9.03104 35.0259 9.14928 34.6839C9.40891 34.1092 9.78708 33.5943 10.2596 33.1721C10.5722 32.8847 11.0465 32.4908 11.6718 31.9904L9.31098 31.1813L7.34903 36.7812L6.65912 36.547L9.63438 28.03L10.3243 28.2642L9.77452 29.957ZM14.0649 22.5898L17.5037 24.719L17.1588 25.2513L16.4042 25.6453L15.1106 24.8042L14.5716 24.4635C14.3992 24.3539 14.1915 24.3121 13.9895 24.3464L13.7846 27.2848L12.8576 28.03C12.9546 27.2954 12.9546 26.9122 12.8576 26.8483C12.7606 26.7844 12.545 26.8483 12.394 27.0719C12.2431 27.2954 12.2216 27.3699 12.0922 27.6148C11.9628 27.8597 11.8658 28.0407 11.7904 28.1578C11.5101 28.6049 11.2082 28.722 10.8741 28.5197C10.5399 28.3175 10.5507 27.9661 10.6692 27.3274C10.7331 26.8825 10.8792 26.4531 11.1004 26.0605C11.7007 25.1406 12.5479 24.4035 13.5475 23.9312C13.2888 23.7715 13.0085 23.5905 12.7282 23.3882L14.2266 20.9928L14.8303 21.3655L14.0649 22.5898ZM12.9869 25.8369L12.9869 24.7723C12.5524 24.9929 12.1954 25.338 11.9628 25.7624C11.8274 25.9818 11.7223 26.2181 11.6502 26.465C11.5424 26.8163 11.564 27.0506 11.7257 27.1783L11.8227 27.1251C11.8874 27.0612 12.0922 26.7418 12.4372 26.1989C12.4963 26.0911 12.5834 26.0009 12.6894 25.9373C12.7955 25.8737 12.9168 25.839 13.0408 25.8369L12.9869 25.8369Z" fill="rgb(255,255,255)" fill-rule="nonzero" />
		<path id="Vector" d="M17.5145 25.6133C17.269 25.644 17.0328 25.7252 16.8211 25.8518C16.6094 25.9783 16.427 26.1473 16.2856 26.3479C15.9674 26.7911 15.6964 27.2656 15.4771 27.7639C15.2545 28.2639 14.9838 28.7416 14.6686 29.1904C14.3787 29.5481 14.01 29.8357 13.5906 30.0315C13.3992 30.1578 13.1741 30.2253 12.9438 30.2253C12.7136 30.2253 12.4885 30.1578 12.297 30.0315L12.0814 29.8718L12.5018 29.3395C12.7481 29.4468 13.0234 29.4705 13.2847 29.4069C13.546 29.3433 13.7787 29.1961 13.9463 28.9882C14.2209 28.6174 14.4591 28.2217 14.6578 27.8064C14.8605 27.4101 15.0986 27.0324 15.3693 26.6779C15.6904 26.2615 16.0804 25.9016 16.5227 25.6133L16.2748 25.411L16.9971 24.4955L17.8918 25.1875L17.5145 25.6133ZM19.1962 17.0963C19.7486 17.0352 20.2665 16.8001 20.673 16.4256C20.8647 16.2313 21.0346 16.0171 21.1797 15.7868L22.4517 15.7868C22.2225 16.2574 22.169 16.7929 22.3008 17.2986C22.4424 17.7023 22.6788 18.0672 22.9907 18.3632C23.2645 18.5639 23.5657 18.7253 23.8854 18.8423L23.6375 19.3533C22.9006 19.2322 22.2069 18.9281 21.6216 18.4697C21.3688 18.0953 21.1727 17.6864 21.0395 17.256C20.6695 17.4605 20.2746 17.6179 19.8645 17.7244C19.5217 17.7896 19.1674 17.7602 18.8404 17.6393C18.6048 17.9983 18.4233 18.3892 18.3014 18.7997C18.1721 19.2362 18.1936 19.5343 18.3553 19.7046C18.3776 19.7314 18.4056 19.7529 18.4372 19.7677C18.4689 19.7825 18.5035 19.7902 18.5386 19.7902C18.5736 19.7902 18.6083 19.7825 18.6399 19.7677C18.6716 19.7529 18.6996 19.7314 18.7219 19.7046C18.994 19.3121 19.1439 18.8495 19.153 18.3739C19.452 18.2668 19.7751 18.243 20.0868 18.305C20.3986 18.3669 20.6871 18.5123 20.921 18.7252C21.058 18.8633 21.1583 19.0329 21.2129 19.2187C21.2674 19.4044 21.2745 19.6007 21.2336 19.7898C21.1209 20.3132 20.8413 20.787 20.4359 21.1419C20.0996 21.5114 19.6743 21.791 19.1994 21.9548C18.7245 22.1186 18.2154 22.1612 17.7193 22.0788C17.0035 21.847 16.3165 21.5363 15.6711 21.1525L16.1994 20.5244C16.738 20.9216 17.3825 21.1548 18.0535 21.1951C18.7356 21.1291 19.3653 20.8047 19.8106 20.2902C19.9851 20.1301 20.1213 19.9338 20.2095 19.7153C20.2696 19.6148 20.2967 19.4984 20.287 19.3821C20.2774 19.2658 20.2315 19.1553 20.1556 19.0659C20.1033 19.0048 20.0367 18.9573 19.9615 18.9275C19.8677 19.2371 19.6973 19.5188 19.4657 19.7472C19.2914 19.936 19.0803 20.088 18.845 20.1941C18.6097 20.3002 18.3552 20.3582 18.0966 20.3647C17.9205 20.3565 17.7477 20.3137 17.5885 20.2387C17.4294 20.1638 17.2869 20.0582 17.1695 19.9282C17.0388 19.6866 16.9791 19.4137 16.9971 19.1404L14.6255 21.3974L14.1296 20.8864L21.9666 13.434L22.4733 13.945L19.1962 17.0963Z" fill="rgb(255,255,255)" fill-rule="nonzero" />
		<path id="Vector" d="M24.6508 12.9336L26.9038 16.2979L26.4726 16.5747C26.1446 16.5175 25.8089 16.5175 25.4809 16.5747L23.5297 13.6576L22.3655 14.4241L21.9666 13.8173L23.1955 13.0507L22.7428 12.3587L23.1632 12.0606L24.0903 12.4652L25.4809 11.5603L25.8797 12.1565L24.6508 12.9336Z" fill="rgb(255,255,255)" fill-rule="nonzero" />
		<path id="Vector" d="M25.2868 12.1458L25.0065 11.4964L34.5036 7.38693L34.7947 8.03635L25.2868 12.1458ZM32.1644 13.6469C31.2193 14.1115 30.1364 14.2249 29.1137 13.9663C28.1075 13.6495 27.2406 13.0037 26.6559 12.1352L27.141 11.7732C27.6316 12.3533 28.2465 12.8187 28.9412 13.1359C29.3824 13.2838 29.849 13.343 30.3137 13.3101C30.7784 13.2772 31.2317 13.1528 31.647 12.9443C32.106 12.7443 32.5285 12.471 32.8974 12.1352C33.3825 11.688 33.5442 11.2728 33.3717 10.9002C33.3011 10.7403 33.1852 10.604 33.0379 10.5077C32.8906 10.4113 32.7183 10.3591 32.5417 10.3572C32.1734 10.3182 31.8013 10.377 31.4637 10.5276C31.0972 10.6873 30.9247 10.815 30.9678 10.9108C31.0109 11.0067 31.0972 10.9747 31.3128 11.0067C31.5284 11.0386 31.647 11.1025 31.6901 11.1983C31.7345 11.3219 31.7386 11.4561 31.7019 11.5821C31.6651 11.7081 31.5894 11.8196 31.4853 11.9009C31.298 12.0961 31.0699 12.2487 30.8169 12.3481C30.5289 12.4875 30.2102 12.5533 29.8898 12.5397C29.7314 12.5364 29.5775 12.4872 29.4472 12.3983C29.3169 12.3093 29.2159 12.1845 29.1568 12.0393C29.0059 11.6987 29.1568 11.3048 29.6311 10.8789C29.9773 10.5561 30.3788 10.2965 30.8169 10.1124C31.4157 9.84876 32.0711 9.73539 32.725 9.78234C33.0475 9.76126 33.3693 9.83364 33.6508 9.99061C33.9323 10.1476 34.1613 10.3823 34.3096 10.666C34.4234 10.9799 34.4368 11.3208 34.3481 11.6426C34.2595 11.9644 34.0729 12.2515 33.8137 12.4652C33.3674 12.9836 32.8019 13.3888 32.1644 13.6469Z" fill="rgb(255,255,255)" fill-rule="nonzero" />
		<path id="Vector" d="M42.2005 6.9185L42.567 9.04775L41.489 9.22874L41.198 8.57932C40.5444 8.31946 39.8433 8.19621 39.139 8.21734C39.1725 8.28888 39.1978 8.36386 39.2145 8.44092C39.2935 8.83838 39.0456 9.08324 38.4707 9.17551C38.2142 9.22359 37.9509 9.22359 37.6945 9.17551C37.5679 9.15739 37.4497 9.10197 37.3555 9.01651C37.2613 8.93104 37.1953 8.81949 37.1663 8.69643C37.0908 8.2067 37.4142 7.89796 38.1473 7.78085C39.0971 7.67082 40.0589 7.71759 40.9932 7.91925L40.8638 7.18466L34.73 8.19605L34.6115 7.48275L44.6476 5.79L44.7554 6.45007L42.2005 6.9185Z" fill="rgb(255,255,255)" fill-rule="nonzero" />
		<path id="Vector" d="M42.7934 11.1664L42.1574 11.1664L41.9202 11.0705L41.392 11.0705C40.958 11.0981 40.526 11.1515 40.0984 11.2302C39.67 11.3013 39.2383 11.3511 38.8048 11.3793C38.3288 11.4191 37.8494 11.3685 37.3927 11.2302C37.1653 11.1801 36.9606 11.0587 36.809 10.884C36.6574 10.7094 36.5672 10.4909 36.5518 10.2614C36.5447 10.1373 36.5447 10.0129 36.5518 9.88881L37.3603 9.88881C37.3603 10.5276 37.6837 10.8363 38.2335 10.815C38.503 10.815 38.8911 10.7512 39.4085 10.6766C39.7971 10.6059 40.1894 10.5561 40.5835 10.5276C40.8606 10.5197 41.1372 10.5556 41.4028 10.634C41.3897 10.4462 41.3897 10.2577 41.4028 10.0698L41.4028 9.50554C41.4094 9.4082 41.3934 9.31064 41.356 9.22036C41.3185 9.13007 41.2606 9.04946 41.1867 8.9847C41.1129 8.91995 41.0249 8.87277 40.9297 8.84679C40.8345 8.82081 40.7345 8.81672 40.6374 8.83483L40.4434 8.83483L40.0769 9.12227C40.6662 9.12227 40.968 9.22874 40.9824 9.44166C40.9828 9.5197 40.962 9.59641 40.9222 9.66382C40.8824 9.73123 40.825 9.78686 40.756 9.82493C40.6244 9.92275 40.4674 9.9818 40.3032 9.99527C39.4947 9.99527 39.0851 9.81428 39.0635 9.35649C39.0528 9.23839 39.0695 9.11943 39.1125 9.00871C39.1555 8.898 39.2235 8.79846 39.3115 8.71772C39.5657 8.5179 39.8595 8.37284 40.1739 8.29187C40.7578 8.25486 41.3441 8.28703 41.9202 8.38768C42.1385 8.42444 42.3372 8.53463 42.4826 8.69957C42.628 8.8645 42.7111 9.07403 42.7179 9.29261L42.7179 10.6553C42.7621 10.8224 42.7874 10.9938 42.7934 11.1664ZM46.534 6.86527L46.4693 10.8576L45.9303 10.8576C45.7047 10.5841 45.4215 10.3625 45.1003 10.2082L45.1003 9.72911L45.1003 6.84398L43.6773 6.82269L43.6773 6.12003L45.4129 6.12003L46.0166 5.74742C45.2573 5.11314 44.2945 4.766 43.3 4.76796C42.4196 4.74306 41.5519 4.98048 40.8099 5.44932L40.3248 5.15123C41.475 4.53293 42.7478 4.16963 44.0546 4.0866C44.7038 4.10166 45.3427 4.25033 45.9303 4.5231C46.4586 4.77347 46.9636 5.06915 47.4395 5.40674L46.2322 6.15197L47.9462 6.15197L47.9462 6.85463L46.534 6.86527ZM57.95 8.67513L56.9905 12.6142L56.2575 12.4333C54.9822 10.996 53.2616 10.0153 51.3634 9.64394L51.3634 8.51544C52.2322 8.46256 53.1034 8.46256 53.9722 8.51544L56.6025 8.51544L56.6025 8.36639L50.5334 6.89721L50.6951 6.2052L59.5346 8.33445L59.3621 9.02646L57.95 8.67513ZM56.3653 9.37778C55.2011 9.3352 54.2417 9.3352 53.4871 9.37778C54.3755 9.85665 55.1949 10.451 55.9233 11.1451L56.3653 9.37778Z" fill="rgb(255,255,255)" fill-rule="nonzero" />
		<path id="Vector" d="M61.0977 9.98462L59.5562 13.6895L59.0711 13.4979C58.9453 13.1941 58.7583 12.9188 58.5213 12.6888L59.858 9.4949L58.5644 8.97323L58.8447 8.30252L60.1598 8.83483L60.4832 8.0683L60.9791 8.24928L61.1516 9.23939L62.6824 9.86751L62.4128 10.5276L61.0977 9.98462ZM64.9461 17.0963C64.7197 16.7556 64.3964 16.3298 63.9759 15.7975C63.6457 15.3652 63.2855 14.9562 62.8979 14.5732C62.4418 14.1555 61.9554 13.7712 61.4427 13.4234L62.3697 12.5078L63.3184 13.434C63.8111 14.0073 64.2445 14.6278 64.612 15.2865C65.0116 15.95 65.3715 16.6361 65.6899 17.3412L64.9461 17.0963ZM63.4585 12.8378C63.1285 12.6597 62.8358 12.4213 62.5961 12.1352C62.4571 12.0126 62.362 11.8489 62.325 11.6685C62.2881 11.4881 62.3114 11.3007 62.3913 11.1344C62.5163 10.9468 62.6941 10.7994 62.903 10.7105C63.1118 10.6216 63.3424 10.595 63.5663 10.634C64.026 10.651 64.4758 10.7712 64.8814 10.9854C65.2067 11.1522 65.4931 11.3842 65.7223 11.6667C65.8442 11.7965 65.9222 11.9605 65.9454 12.136C65.9686 12.3116 65.9358 12.4899 65.8516 12.6462C65.7391 12.8244 65.5789 12.9685 65.3886 13.0625C65.1984 13.1564 64.9856 13.1966 64.7737 13.1785C64.3127 13.1797 63.8595 13.0623 63.4585 12.8378ZM64.1592 11.2409C64.0777 11.2219 63.9928 11.2219 63.9113 11.2409C63.8741 11.2362 63.8364 11.2417 63.8022 11.2567C63.768 11.2717 63.7386 11.2957 63.7172 11.326C63.6715 11.4302 63.648 11.5426 63.648 11.6561C63.648 11.7696 63.6715 11.8819 63.7172 11.9861C63.772 12.2121 63.9056 12.4118 64.0945 12.5504L64.3856 12.6249L64.6227 12.6249C64.6227 12.6249 64.6227 12.3055 64.4934 11.9329C64.364 11.5603 64.2347 11.2941 64.1592 11.2409ZM67.2207 16.415C67.3147 16.3323 67.4273 16.2729 67.549 16.2414C67.6708 16.2099 67.7984 16.2074 67.9214 16.234C68.1722 16.2893 68.4078 16.3983 68.6113 16.5534C68.8019 16.7103 68.9501 16.9115 69.0425 17.1389C69.099 17.2491 69.122 17.3731 69.1086 17.4959C69.0952 17.6188 69.046 17.7351 68.967 17.8309C68.6113 18.2568 68.1154 18.2142 67.4902 17.6925C67.0415 17.3326 66.7082 16.8518 66.5308 16.3085C66.4217 16.0513 66.3831 15.7702 66.4191 15.4935C66.455 15.2169 66.5642 14.9545 66.7356 14.7328C66.8505 14.5903 66.9964 14.4752 67.1625 14.3959C67.3285 14.3167 67.5106 14.2754 67.695 14.2751C68.0688 14.2955 68.4251 14.4378 68.7083 14.6796C68.9452 14.9017 69.1485 15.1563 69.312 15.4355C69.5193 15.6995 69.6565 16.0106 69.7109 16.3404C70.2082 16.5321 70.7406 16.6191 71.2739 16.5959C71.2037 16.9855 71.2804 17.387 71.4895 17.7244L72.1471 16.9579C71.7736 16.6996 71.4138 16.4224 71.0691 16.1275L67.2315 12.9336L67.7273 12.3481L74.6157 18.0545L74.1522 18.6081L73.2143 17.8416L70.6271 20.9396L70.1313 20.4712L69.9804 19.5556L70.5948 18.8423C70.7514 18.6756 70.8855 18.4895 70.9937 18.2887C71.055 18.1587 71.0764 18.0138 71.0553 17.8719C71.0343 17.7301 70.9716 17.5974 70.8751 17.4902L69.5492 17.0963C69.4491 16.9074 69.3627 16.7117 69.2904 16.5108C69.2461 16.3539 69.1808 16.2035 69.0964 16.0636C68.9653 15.8642 68.8014 15.6879 68.6113 15.542C68.4005 15.3596 68.1495 15.2284 67.8783 15.1587C67.7447 15.1205 67.6027 15.1223 67.4703 15.164C67.3378 15.2057 67.2209 15.2854 67.1345 15.3929C67.0046 15.5324 66.9316 15.7144 66.9296 15.9039C66.9304 15.9962 66.9521 16.0872 66.9931 16.1701C67.0342 16.253 67.0935 16.3257 67.1668 16.383L67.2207 16.415Z" fill="rgb(255,255,255)" fill-rule="nonzero" />
		<path id="Vector" d="M75.532 20.4925L72.4598 23.1434L72.1148 22.7601C72.1402 22.4275 72.0924 22.0933 71.9747 21.7807L74.6373 19.4811L73.721 18.4164L74.26 17.948L75.1979 19.0126L75.8447 18.459L76.2004 18.8423L75.9093 19.8111L76.9873 21.0461L76.4376 21.5145L75.532 20.4925Z" fill="rgb(255,255,255)" fill-rule="nonzero" />
		<path id="Vector" d="M78.1731 23.9312C77.9581 23.7226 77.7012 23.5607 77.419 23.4562C77.1367 23.3517 76.8354 23.3068 76.5346 23.3244C75.9899 23.2373 75.4313 23.323 74.9391 23.5692C74.6481 23.7715 74.5726 23.9738 74.702 24.1867C74.8642 24.2452 75.0359 24.2741 75.2086 24.2719C75.345 24.2973 75.4743 24.3513 75.5877 24.4303C75.7012 24.5093 75.7961 24.6114 75.8662 24.7297C76.0001 24.9123 76.0718 25.1323 76.071 25.3578C76.077 25.4655 76.0566 25.573 76.0116 25.6712C75.9665 25.7694 75.8982 25.8555 75.8123 25.9221C75.7132 25.9908 75.599 26.0353 75.479 26.052C75.3591 26.0686 75.2368 26.0569 75.1224 26.0179C74.7931 25.9133 74.5111 25.6987 74.3247 25.411C74.0335 25.0454 73.8878 24.5872 73.915 24.1228C73.9512 23.9047 74.0344 23.6967 74.159 23.513C74.2836 23.3293 74.4467 23.1742 74.6373 23.0582C74.982 22.7933 75.3776 22.6002 75.8 22.4904C76.2224 22.3806 76.663 22.3565 77.0951 22.4194L76.0171 20.9183L76.61 20.5031L79.4451 24.389L78.8522 24.8148L78.1731 23.9312Z" fill="rgb(255,255,255)" fill-rule="nonzero" />
		<path id="Vector" d="M80.0596 26.9867L78.4965 27.7426L78.4965 27.9555C79.5042 28.63 80.4397 29.404 81.2885 30.2657L81.2885 31.6817C80.9975 31.4305 80.6392 31.2677 80.2567 31.2129C79.8741 31.1581 79.4838 31.2137 79.1325 31.3729C78.7355 31.5936 78.4073 31.9177 78.1839 32.3098L77.7958 31.4901C78.1472 30.9909 78.6077 30.5761 79.1433 30.2764C79.3704 30.176 79.6094 30.1044 79.8548 30.0635C79.1304 29.2956 78.2483 28.6894 77.2676 28.2855L77.0951 26.9015L79.4559 25.7304L78.7121 24.2613L79.3589 23.9419L83.4013 31.9159L82.7438 32.2353L80.0596 26.9867ZM84.4254 39.166L80.5662 40.0922L80.383 39.4534L80.7279 38.5911L82.2479 38.2824C82.6201 38.2161 82.9669 38.0504 83.2504 37.8033C83.571 37.4273 83.75 36.9533 83.7571 36.4618C83.7083 36.3667 83.6544 36.2743 83.5954 36.185C83.5091 36.0679 83.4445 36.0041 83.3906 35.9934C83.3367 35.9828 83.2181 36.1425 83.175 36.3234C83.1318 36.5044 83.024 36.8771 82.9809 36.9942C82.9521 37.0865 82.9021 37.1711 82.8348 37.2413C82.7675 37.3114 82.6847 37.3653 82.5928 37.3987C82.1832 37.4981 81.9137 37.2958 81.7844 36.7919C81.7521 36.5909 81.7521 36.3861 81.7844 36.185C81.9029 35.9828 82.0431 35.7273 82.194 35.4079C82.0514 35.2522 81.8882 35.1161 81.7089 35.0033C81.4525 34.8352 81.2652 34.5823 81.1807 34.29C81.1376 34.09 81.1376 33.8832 81.1807 33.6832C81.1807 33.417 81.3424 33.268 81.5149 33.2254C81.6873 33.1828 82.097 33.3106 82.4527 33.6725C82.6737 33.9315 82.9315 34.1574 83.2181 34.3432L82.9594 33.2786C83.1624 32.9913 83.3357 32.6845 83.4768 32.363C83.6447 32.9365 83.6996 33.5364 83.6385 34.1303C83.6385 34.3645 83.563 34.5775 83.5415 34.7584C83.9592 35.2203 84.3276 35.7233 84.641 36.2596C84.317 36.7649 84.0427 37.2996 83.8218 37.8565L84.792 37.6329L85.4603 40.3158L84.7488 40.4861L84.4254 39.166Z" fill="rgb(255,255,255)" fill-rule="nonzero" />
	</g>
	<path id="Vector" d="M90.57 45.5005C90.57 54.2052 87.9564 62.7144 83.0596 69.952C78.1628 77.1897 71.2029 82.8308 63.0598 86.1619C54.9168 89.493 45.9564 90.3646 37.3118 88.6664C28.6672 86.9682 20.7266 82.7765 14.4942 76.6214C8.26181 70.4663 4.01749 62.6241 2.29797 54.0867C0.578449 45.5493 1.46097 36.7001 4.83393 28.658C8.20688 20.6159 13.9188 13.7423 21.2473 8.90621C28.5759 4.07015 37.1919 1.48892 46.0059 1.48892C57.8206 1.503 69.1474 6.14445 77.5017 14.3952C85.8561 22.6459 90.5558 33.8322 90.57 45.5005ZM46.0059 0.0623181C36.9109 0.0602136 28.0196 2.72154 20.4561 7.70979C12.8926 12.698 6.99662 19.7892 3.51367 28.0866C0.0307317 36.384 -0.882763 45.5151 0.888696 54.3252C2.66016 63.1354 7.03701 71.2289 13.4658 77.5825C19.8947 83.9361 28.0868 88.2644 37.0063 90.0201C45.9258 91.7757 55.1721 90.88 63.5762 87.4461C71.9802 84.0121 79.1646 78.1943 84.2208 70.7281C89.277 63.2619 91.978 54.4827 91.9822 45.5005C91.9737 33.4577 87.128 21.91 78.5086 13.3915C69.8891 4.8729 58.1999 0.0792332 46.0059 0.0623181Z" fill="rgb(254.052,254.052,254.052)" fill-rule="nonzero" />
	<path id="Vector" d="M33.2963 22.7388C32.9729 22.5578 31.7224 22.3236 31.3559 22.7388C30.9894 23.154 31.5607 24.1974 31.4637 24.719C30.763 24.9426 30.127 25.9327 29.7928 26.5502C29.243 27.5616 29.3724 28.1258 30.4288 28.6794C31.1519 28.9896 31.854 29.3452 32.5309 29.7441C33.2375 30.2806 34.0377 30.6847 34.8917 30.9364C35.0744 31.2941 35.1776 31.6862 35.1944 32.0865C35.2111 32.4868 35.141 32.886 34.9887 33.2573C34.2588 33.2145 33.5273 33.3085 32.8328 33.5341C32.0997 33.8429 32.0566 34.5136 31.5499 35.0672C31.0433 35.6208 30.472 35.706 30.0192 36.4938C29.6433 37.0517 29.4791 37.7229 29.5557 38.3888C30.0192 39.7835 32.5525 39.7409 33.6736 40.4116C35.3337 41.4123 34.2665 42.8922 33.555 44.0952C32.8435 45.2982 33.0268 46.4161 33.7706 47.864C34.5285 49.0204 35.1131 50.2791 35.5062 51.6008C36.0667 54.3688 34.8055 58.6912 37.4034 60.5543C38.0395 61.0121 38.9234 61.3634 39.3869 60.5543C39.7535 59.9475 39.8505 60.7672 40.3356 60.2562C41.0255 59.5216 40.6051 59.5855 40.8099 60.0646C41.2088 60.9801 41.3705 60.4478 42.4269 60.1817C43.4833 59.9155 43.7959 59.7771 44.5829 60.4585C45.3698 61.1398 45.8118 61.6296 46.4586 60.6501C46.9545 59.9049 46.782 58.7657 47.2671 58.0418C47.7522 57.3178 48.3451 57.7969 49.1536 58.0418C49.3368 58.0418 49.3045 58.1057 49.4554 58.2121C50.6735 58.2121 50.1992 57.1475 50.9754 56.7323C51.9563 56.2213 52.5277 57.6905 53.0451 56.4661C53.6811 54.997 52.5277 52.2715 55.3412 52.9635C57.066 53.3787 57.853 55.2418 58.1979 56.8068C58.4243 57.8714 58.4351 58.8828 58.6938 59.8942C59.0111 60.8564 59.2279 61.8481 59.3406 62.8539C59.4252 64.0544 59.6532 65.2408 60.0197 66.3884C61.3672 66.3246 60.5587 64.6212 61.3349 64.0782C62.111 63.5352 63.6633 64.3869 64.6551 64.2272C64.7413 63.3563 64.7413 62.4792 64.6551 61.6083C64.5042 60.7033 64.0622 59.99 63.9867 59.0638C63.825 57.3498 64.2454 55.5186 63.9867 53.8046C63.728 52.0905 62.8009 50.6426 62.4021 49.0351C62.154 47.424 61.7718 45.8359 61.2594 44.2868C60.8821 43.4138 60.4832 43.2222 59.4915 43.3606C58.9094 44.883 59.0819 46.299 58.2195 47.7469C57.3571 49.1947 56.333 50.5894 54.716 48.6837C54.1818 47.8807 53.7132 47.037 53.3146 46.1606C52.845 45.4634 52.5427 44.6696 52.4306 43.8397C52.3228 42.0405 53.7135 40.9226 55.2873 40.4542C56.6672 40.039 56.7426 39.6238 57.7883 38.7614C58.4782 38.1759 59.4807 38.0055 60.2569 37.4413C61.5612 36.5151 60.5264 35.6527 61.0761 34.4816C61.4534 33.6725 63.2321 33.6619 63.1674 32.7357C62.5207 32.3737 62.1757 31.7562 61.475 31.4049C60.8701 31.0329 60.2016 30.7731 59.5023 30.6383C58.8294 30.492 58.129 30.5288 57.4756 30.7448C56.9013 31.028 56.2977 31.2493 55.6754 31.4049C54.1554 31.4049 53.5194 29.1266 52.021 30.7235C51.579 31.1919 51.5036 31.703 50.943 32.0862C50.2876 32.4571 49.5423 32.6448 48.787 32.6292C48.0623 32.7162 47.3427 32.8406 46.6311 33.0018C45.8402 33.0561 45.0494 32.894 44.3457 32.5334C42.4053 31.8094 42.5994 31.011 42.5994 29.0201C42.5994 27.849 42.5994 25.081 41.0794 24.9958C40.0014 24.9426 40.3895 25.7304 39.775 26.1563C39.1606 26.5821 38.2874 25.9859 37.9748 25.6133C37.2956 24.719 37.6406 23.0902 36.056 22.9837C34.4713 22.8772 34.2126 24.5487 33.1993 22.7388" fill="rgb(255,203,5)" fill-rule="nonzero" />
	<path id="Vector" d="M9.14932 50.8875L10.1087 53.7939L13.2133 53.7939L10.7016 55.5931L11.661 58.4996L9.14932 56.7003L6.64838 58.4996L7.60779 55.5931L5.09607 53.7939L8.20069 53.7939L9.14932 50.8875ZM15.5849 64.5679L16.5336 67.4743L19.6382 67.4743L17.1372 69.2736L18.0859 72.18L15.5849 70.3808L13.0732 72.18L14.0326 69.2736L11.5317 67.4743L14.6255 67.4743L15.5849 64.5679ZM76.4268 64.4189L77.3862 67.3359L80.48 67.3359L77.9683 69.1352L78.9277 72.0416L76.4268 70.2424L73.9151 72.0416L74.8745 69.1352L72.3735 67.3359L75.4674 67.3359L76.4268 64.4189ZM83.4229 50.4616L84.3824 53.3681L87.4762 53.3681L84.9752 55.1673L85.9239 58.0737L83.4229 56.2745L80.922 58.0737L81.8706 55.1673L79.3697 53.3681L82.4635 53.3681L83.4229 50.4616Z" fill="rgb(255,203,5)" fill-rule="nonzero" />
</svg>
